PathFileType	4	(X/Y/Z)	 s05c0103.trc
DataRate	CameraRate	NumFrames	NumMarkers	Units	OrigDataRate	OrigDataStartFrame	OrigNumFrames
200	200	4	49	mm	200	1001	2000
Frame#	Time	racr			lacr			c7			jug			rlel			rdr			llel			ldr			s2			lic			ric			lasi			rasi			rpsi			lpsi			rgt			lgt			rth1			rth2			rth3			rth4			rlfc			rsh1			rsh2			rsh3			rsh4			rlmal			rmmal			rcal			rtoe			rmt5			lth1			lth2			lth4			lth3			llfc			lmfc			lsh1			lsh2			lsh3			lsh4			llmal			lmmal			lcal			ltoe			lmt5			SBIKE			LBIKE			RBIKE			
		X1	Y1	Z1	X2	Y2	Z2	X3	Y3	Z3	X4	Y4	Z4	X5	Y5	Z5	X6	Y6	Z6	X7	Y7	Z7	X8	Y8	Z8	X9	Y9	Z9	X10	Y10	Z10	X11	Y11	Z11	X12	Y12	Z12	X13	Y13	Z13	X14	Y14	Z14	X15	Y15	Z15	X16	Y16	Z16	X17	Y17	Z17	X18	Y18	Z18	X19	Y19	Z19	X20	Y20	Z20	X21	Y21	Z21	X22	Y22	Z22	X23	Y23	Z23	X24	Y24	Z24	X25	Y25	Z25	X26	Y26	Z26	X27	Y27	Z27	X28	Y28	Z28	X29	Y29	Z29	X30	Y30	Z30	X31	Y31	Z31	X32	Y32	Z32	X33	Y33	Z33	X34	Y34	Z34	X35	Y35	Z35	X36	Y36	Z36	X37	Y37	Z37	X38	Y38	Z38	X39	Y39	Z39	X40	Y40	Z40	X41	Y41	Z41	X42	Y42	Z42	X43	Y43	Z43	X44	Y44	Z44	X45	Y45	Z45	X46	Y46	Z46	X47	Y47	Z47	X48	Y48	Z48	X49	Y49	Z49	
1001	5.0050	493.993951	1273.643407	-167.978959	482.957967	1256.202107	-414.284989	474.536306	1333.448177	-301.412103	405.978641	1187.939920	-281.345237	510.110066	1066.298728	16.215774	694.968542	935.309793	-66.520867	485.812476	1025.723110	-590.446557	692.585645	925.320966	-466.336590	-100.840756	1170.796603	-254.096746	33.927879	1176.073786	-405.042938	49.636652	1197.158548	-119.430183	81.791664	1125.651778	-366.077730	94.037103	1137.178702	-147.559457	-66.081192	1219.967640	-217.348739	-67.007052	1219.370734	-303.457031	9.187763	1059.138104	-89.522732	-14.193273	1083.417558	-428.185276	105.131641	970.179581	-83.346960	179.365096	921.592928	-90.170109	217.923861	843.352304	-101.280448	205.132693	945.999284	-100.616253	318.436845	735.660742	-133.910810	273.254133	635.148246	-101.757683	282.688113	547.195537	-111.326138	250.308592	467.904604	-112.117216	309.710326	545.621623	-139.225028	231.280717	334.915989	-115.475671	241.256090	361.270599	-195.851244	165.950912	292.529177	-160.859780	461.876706	303.656614	-144.474517	360.539021	271.569089	-83.905403	105.284227	999.084702	-438.087883	189.277800	981.235332	-431.105533	205.415874	1010.668060	-413.942943	255.172725	919.113500	-429.228106	359.240899	818.282996	-395.881239	333.955100	799.828658	-290.321786	267.028661	736.894998	-430.163842	221.688892	662.757471	-424.221365	143.406386	620.160362	-431.063963	241.396663	642.072558	-398.016419	61.310077	535.941129	-435.647716	NaN	NaN	NaN	-7.033950	557.767988	-391.842043	152.062711	308.930157	-392.565807	69.222209	381.122348	-456.822817	-214.297425	912.736688	-266.710103	-43.466575	85.245042	-474.552022	-51.715088	80.091117	-77.065779	
1002	5.0100	494.871611	1273.905414	-169.920662	482.205466	1256.282249	-415.802204	474.638007	1333.784273	-302.940754	405.941180	1188.382015	-282.522377	511.170449	1067.326001	15.445020	695.440511	935.182634	-66.824182	485.781651	1025.127797	-590.595433	692.788848	925.464834	-466.212697	-100.069439	1171.704625	-252.562730	33.422476	1177.780775	-403.792152	51.056388	1197.313829	-118.399007	81.520839	1127.261224	-365.320076	95.086064	1137.072347	-146.644024	-64.971251	1220.666554	-215.293856	-66.619562	1220.666908	-301.517095	9.284351	1058.333510	-89.200514	-13.992836	1086.334577	-427.592379	103.807805	967.649169	-82.102645	176.195969	916.492124	-89.785689	212.014013	836.873461	-100.867240	202.766498	940.172477	-100.329377	309.997350	726.800421	-133.032068	265.127067	626.216953	-100.608479	275.850285	538.571793	-110.310157	244.595179	458.711988	-111.198802	303.015825	537.324787	-137.967442	227.968605	325.350982	-114.922145	237.668622	351.378782	-195.391800	162.376296	283.361314	-160.210220	458.514978	292.680441	-144.914134	357.205751	261.254171	-83.900814	106.199837	1003.231135	-438.151158	190.527652	987.192528	-430.956538	206.004976	1016.779164	-413.353728	257.704435	926.430887	-429.357659	364.026138	827.364006	-395.075201	338.371179	808.457046	-290.354704	270.410655	746.544144	-429.942806	224.059527	672.550930	-423.369646	145.893623	630.814424	-430.376461	244.513882	651.706107	-398.307819	63.425556	546.599926	-435.048889	NaN	NaN	NaN	-4.945708	567.839041	-391.167744	156.082172	320.348416	-392.416427	72.661152	391.939635	-456.513745	-214.245589	912.789337	-266.633567	-43.451782	85.294626	-474.534266	-51.699568	80.107339	-77.067644	
1003	5.0150	495.589683	1274.315142	-171.541036	485.389314	1258.341183	-421.926084	474.461164	1333.957655	-304.451763	410.879303	1186.077889	-285.232014	512.208027	1068.380234	14.613576	695.846011	935.060482	-67.204367	485.714268	1024.669074	-590.721171	692.917933	925.611112	-466.154820	-99.330378	1172.714367	-250.886784	33.001014	1179.546078	-402.680299	52.615911	1197.444160	-117.284665	81.234477	1128.926071	-364.590389	96.151469	1136.939828	-145.757051	-63.933067	1221.229324	-213.507011	-66.227336	1221.981226	-299.527356	9.343746	1057.653379	-88.919775	-13.787003	1089.311904	-427.142199	101.518321	964.618920	-82.168125	172.690296	911.401540	-89.269359	205.999221	830.602766	-100.743021	199.973380	934.189108	-99.885930	301.211518	718.152711	-132.432266	257.074686	617.740841	-99.225149	268.737189	530.193795	-109.120905	238.387677	449.868716	-110.111357	295.964985	529.237558	-136.706370	224.216657	316.222620	-114.365624	233.167833	342.229821	-194.718331	157.494491	275.584998	-158.364773	454.595030	281.767020	-145.481584	353.302250	251.275662	-83.980050	107.079310	1007.838348	-438.039124	191.656227	993.481628	-430.753652	206.471042	1023.251685	-412.845324	260.121111	934.045278	-429.585730	368.152048	836.410921	-395.365621	342.792136	817.080538	-290.502875	273.897363	756.397514	-429.659675	227.137156	682.808593	-423.222717	148.644664	641.539146	-429.679097	247.773529	661.450592	-398.650146	65.865553	556.947015	-434.466113	NaN	NaN	NaN	-2.925905	577.600929	-390.683774	160.774886	331.731967	-392.170921	76.719940	402.597021	-456.202593	-214.217474	912.845730	-266.617974	-43.436010	85.361741	-474.541335	-51.699875	80.119352	-77.071124	
1004	5.0200	496.275300	1274.625233	-173.063754	484.533561	1258.631547	-423.234981	474.466415	1334.224169	-305.909691	410.721291	1186.472581	-286.186561	513.049362	1069.242463	13.816353	696.190990	934.887026	-67.588736	485.585102	1024.373871	-590.816872	692.991887	925.806018	-466.213179	-98.634160	1173.654703	-249.327555	32.364022	1181.416330	-401.420172	54.246882	1197.440145	-116.229994	80.920901	1130.625853	-363.895669	97.268432	1136.810629	-144.898380	-62.490160	1221.594020	-211.726362	-65.345683	1223.005811	-297.950460	9.421059	1056.944133	-88.708009	-13.512496	1092.345854	-426.718219	99.293422	961.925625	-81.604301	168.793071	906.390506	-88.678209	199.425506	824.634361	-100.525002	196.845366	928.507676	-99.231410	292.274845	710.030865	-131.642447	249.233244	609.652863	-97.707975	261.541132	522.263810	-107.843574	231.913267	441.656462	-108.752778	288.594597	521.635832	-135.526288	219.968065	307.689564	-113.575333	228.326348	333.480124	-193.903476	152.757806	267.649966	-157.159952	450.062257	270.957598	-146.116863	348.856092	241.490554	-83.989386	107.908792	1012.832718	-437.787549	192.752781	999.998112	-430.497906	206.940937	1029.934748	-412.276058	262.376295	941.929347	-429.785492	372.222280	845.737085	-395.807674	347.378241	825.898623	-290.795902	277.559260	766.428603	-429.271258	230.392831	693.030631	-422.990162	151.656223	651.995604	-428.862366	251.186437	671.046823	-399.143300	68.764948	567.035165	-433.832516	NaN	NaN	NaN	-0.473129	586.810753	-390.111980	166.207058	343.074450	-392.040618	81.368953	412.940876	-455.931594	-214.202461	912.881535	-266.638446	-43.436629	85.392222	-474.528228	-51.683481	80.136550	-77.067530	
